<?xml version="1.0" encoding="UTF-8"?>
<svg id="Layer_1" xmlns="http://www.w3.org/2000/svg" version="1.1" viewBox="0 0 504 360">
  <defs>
    <style>
      .st0 { fill: #c8bc9b; }
      .st1 { fill: #947588; }
      .st2 { fill: #4d235a; }
      .st3 { fill: #c2a25c; }
      .st4 { fill: #4b235a; }
      .st5 { fill: #cfc09d; }
      .st6 { fill: #6c4f71; }
      .st7 { fill: #ccc2b7; }
      .st8 { fill: #c4b891; }
      .st9 { fill: #6c5570; }
      .st10 { fill: #4e255e; }
      .st11 { fill: #b5a0a6; }
      .st12 { fill: #62466e; }
      .st13 { fill: #836481; }
      .st14 { fill: #491f58; }
      .st15 { fill: #cabc98; }
      .st16 { fill: #4e255d; }
      .st17 { fill: #e5e0d5; }
      .st18 { fill: #caba99; }
      .st19 { fill: #c8b9b6; }
      .st20 { fill: #714c6c; }
      .st21 { fill: #4c235a; }
      .st22 { fill: #cec0bb; }
      .st23 { fill: #d1c6ac; }
      .st24 { fill: #c8bb98; }
      .st25 { fill: #481e58; }
      .st26 { fill: #755a79; }
      .st27 { fill: #552e60; }
      .st28 { fill: #c8b691; }
      .st29 { fill: #bfb393; }
      .st30 { fill: #4b205d; }
      .st31 { fill: #c4b78f; }
      .st32 { fill: #c6b58c; }
      .st33 { fill: #d3c4c2; }
      .st34 { fill: #522b59; }
      .st35 { fill: #492058; }
      .st36 { fill: #c2b691; }
      .st37 { fill: #bda9aa; }
      .st38 { fill: #c8bb95; }
      .st39 { fill: #e5e1d6; }
      .st40 { fill: #c5b799; }
      .st41 { fill: #5c4569; }
      .st42 { fill: #c6b894; }
      .st43 { fill: #866884; }
      .st44 { fill: #ddd2c7; }
      .st45 { fill: #7c637f; }
      .st46 { fill: #ece9db; }
      .st47 { fill: #604567; }
      .st48 { fill: #b39da7; }
      .st49 { fill: #c7a662; }
      .st50 { fill: #e2ded4; }
      .st51 { fill: #c4b2b2; }
      .st52 { fill: #c3b68f; }
      .st53 { fill: #8e7186; }
      .st54 { fill: #e0dbd2; }
      .st55 { fill: #c3a87f; }
      .st56 { fill: #80617c; }
      .st57 { fill: #4d255d; }
      .st58 { fill: #522960; }
      .st59 { fill: #624465; }
      .st60 { fill: #4c245d; }
      .st61 { fill: #5b3a67; }
      .st62 { fill: #4e275c; }
      .st63 { fill: #c6b590; }
      .st64 { fill: #c2a562; }
      .st65 { fill: #c2ac78; }
      .st66 { fill: #c5ab80; }
      .st67 { fill: #c2abaf; }
      .st68 { fill: #d3c8af; }
      .st69 { fill: #c5bba4; }
      .st70 { fill: #8b788d; }
      .st71 { fill: #ac959e; }
      .st72 { fill: #593e61; }
      .st73 { fill: #c3a666; }
      .st74 { fill: #e2ddd4; }
      .st75 { fill: #533161; }
      .st76 { fill: #3e1748; }
      .st77 { fill: #c9bb99; }
      .st78 { fill: #cdc4b0; }
      .st79 { fill: #583662; }
      .st80 { fill: #c3b58e; }
      .st81 { fill: #6a5270; }
      .st82 { fill: #8c728b; }
      .st83 { fill: #4f275e; }
      .st84 { fill: #644968; }
      .st85 { fill: #c1a475; }
      .st86 { fill: #c8ba98; }
      .st87 { fill: #c6b891; }
      .st88 { fill: #cfbd9c; }
      .st89 { fill: #cfbe9e; }
      .st90 { fill: #cbc2a5; }
      .st91 { fill: #a08491; }
      .st92 { fill: #5e4268; }
      .st93 { fill: #675768; }
      .st94 { fill: #5e3d66; }
      .st95 { fill: #4f285e; }
      .st96 { fill: #79657a; }
      .st97 { fill: #c7bc99; }
      .st98 { fill: #c5b691; }
      .st99 { fill: #ccbf9c; }
      .st100 { fill: #512a5f; }
      .st101 { fill: #907386; }
      .st102 { fill: #c6b994; }
      .st103 { fill: #5e4265; }
      .st104 { fill: #8e7a8d; }
      .st105 { fill: #c8a762; }
      .st106 { fill: #e1dcd3; }
    </style>
  </defs>
  <path class="st105" d="M317.97,4.61l2,.11c2.6,1.52,5.95,1.2,9.07,2.1l9.87,2.84,13.04,4.32c.21.07.45,0,.67.04l12.58,6.01c5.72,2.73,21.85,12.01,26.35,15.61l6.99,5.59c2.21,1.76,4.08,3.32,6.25,5.12,12.73,10.53,32.06,36.23,29.85,34.76l1.14.76.04.67c3.44,5.45,6.59,11.16,9.51,17.24l6.43,13.42c0,.21-.02.47.05.67l6.62,19.33c.03.22,0,.45.05.67,2.56,10.26,4.03,20.66,5.28,31.46.43,3.67-.39,7.53.38,11.06s.05,6.61-.05,10.12c-.19,6.83-.3,13.22-1.46,20.02s-2.41,13.98-4.12,20.64c-.11.42-.06.9-.11,1.33-5.44,17.35-12.59,34.04-22.59,49.32l-.05.67-5.42,7.87c-16.86,24.48-45.3,45.46-71.72,57.97-.2.06-.47-.04-.67.05-35.12,14.5-73.55,18.12-111.12,9.79-34.75-7.7-69.44-28.43-92.6-55.03-8.41-9.66-14.82-19.47-21.1-30.41-8.01-13.93-13.85-28.57-17.72-44.23-.33-1.33-.09-2.68-1.16-3.32-.03-.44-.04-.9-.11-1.33-.62-3.87-1.49-7.79-1.96-12.01l-1.85-16.86c-1.65-15.08,1.05-36.35,3.84-51.11.04-.22.03-.45.05-.67,3.29-9.96,6.79-24.16,11.95-33.92l9.24-17.49c2.68-5.07,12.51-18.91,16.2-22.99l5.41-5.97c3.27-3.6,6.59-7.19,10.37-10.21,2.68-2.14,4.56-4.74,7.32-6.71,7.63-5.43,14.75-11.14,22.9-15.67,3.44-1.92,6.79-3.42,9.75-5.54.2-.05.49.05.67-.04,14.9-7.75,30.91-12.54,47.31-15.92.67-.05,1.33,0,2-.11,4.16-.67,8.41-1.54,13.02-1.77,10.94-.54,21.83-.4,32.84-.09,5.19.14,9.98,1.61,14.78,1.86v-.02ZM166.75,257.11c-1.12.46-1.05,1.76-1.43,2.71-1.12,2.82-2.17,5.93-3.9,8.69-1.04,1.66-3.33-.24-3.88-1.59-2.79-6.9-5.28-13.39-8.63-19.86-.42,5.51-.23,10.26-.15,15.34.06,4.04,4.37,3.19,4.39,5.04.03,2.83-4.92.91-7.11,1.83l6.02,9.11c19.68,29.81,54.03,52.88,87.89,63.22,6.75,2.06,26.43,6.47,32.74,6.64,14.76.41,28.17,1.02,42.2-2.08l15.77-3.48c4.44-.98,8.02-2.46,12.29-4,21.65-7.8,40.7-19.78,57.61-34.9,1.7.14,6.29-5.53,9.27-8.07,1.04-.88.87-1.92,1.44-2.64l9.89-12.64,6.66-10.2c-1.13-.49-2.07-1.3-3-2.16-2.67,1.31-5.14,2.29-8.17,1.45-8.36-2.32-8.01-15.37-4.49-20.77,2.98-4.57,7.92-5.75,13.24-4.82.69-1.59.93-4.53-.6-5.51-1.31-.84-2.49-.69-2.37-2.31s1-1.55,2.85-1.88c1.45-.26,4.74-1.91,5.8-.32l.66,29.57c11.82-19.64,18.75-41.04,21.66-63.57,1.64-12.68,1.5-24.17.04-36.79-2.78-24.13-9.87-45.92-22-66.7-3.28-5.62-6.39-10.96-10.09-15.91l-1.5-2c-2.55-3.41-5.69-6.33-7.89-9.96-.49-.81-.46-1.72-1.47-2.62-3.25-2.88-9.19-9.84-11.25-10.11-.61-.7-1.54-.97-1.96-1.91-1.05-2.36-3.43-3.41-5.37-4.73-8.34-5.66-16.17-11.61-25.41-16.59-26.87-14.48-56.33-21.98-86.9-20.42-52.45,2.69-102.37,30.95-130.94,74.75-15.51,23.79-25.35,49.72-28.1,77.89-.92,9.42-.76,18.67-.05,28.18,1.86,24.98,9.61,48.35,21.64,70.07.45.82.81,1.5,1.42,1.31.76-.24,1.07-1.07,1.07-1.94l-.12-21.81-3.58-3.62c.78-1.99,2.7-2.14,4.74-1.64,1.59.18,4.58-.97,5.81.23l9.71,21.94,9.64-22.21c2.95-.41,5.62-.1,8.52-.2,1.07.25,1.45.96,1.44,1.69-.04,3.03-3.5,1.02-3.49,4.96l.05,20.59c0,3.91,4.53,3.21,4,5.56-.11.46-.58,1.04-1.35,1.04h-9.95c-1.58.01-2.19-.89-2.07-2.23.08-.87,1.41-1.01,2.34-1.56.24-5.01.38-10.82-.13-16.04-1.48,2.69-2.56,5.32-3.42,7.94l-.03.04ZM425.44,262.13c.71-2.83,1.66-14.17-3.14-14.35-2.11-.08-3.61.32-4.74,2.27-2.38,4.1-2.26,9.39,1.13,13.16,1.25,1.39,6.25.9,6.74-1.07h.01Z"/>
  <path class="st39" d="M391.91,49.2c1.51,1.8,3.03,4.18,5.37,4.73.42.94,1.35,1.21,1.96,1.91,3.95,4.49,8.22,8.8,12.72,12.73,2.2,3.63,5.34,6.55,7.89,9.96.34.78.75,1.55,1.5,2,3.7,4.95,6.8,10.28,10.09,15.91,12.13,20.78,19.22,42.57,22,66.7,1.45,12.62,1.6,24.11-.04,36.79-2.92,22.52-9.84,43.92-21.66,63.57l-.66-29.57c-1.06-1.59-4.35.07-5.8.32-1.85.33-2.73.21-2.85,1.88s1.06,1.48,2.37,2.31c1.53.98,1.29,3.93.6,5.51-5.33-.93-10.26.25-13.24,4.82-3.52,5.4-3.87,18.45,4.49,20.77,3.03.84,5.51-.14,8.17-1.45.94.85,1.87,1.67,3,2.16l-6.66,10.2-9.89,12.64c-3.79,3.3-7.41,6.91-10.7,10.71-16.91,15.12-35.97,27.1-57.61,34.9-4.27,1.54-7.85,3.02-12.29,4l-15.77,3.48c-14.03,3.1-27.44,2.48-42.2,2.08-6.31-.17-25.99-4.58-32.74-6.64-33.86-10.34-68.21-33.42-87.89-63.22l-6.02-9.11c2.19-.91,7.13,1.01,7.11-1.83-.02-1.85-4.33-1-4.39-5.04-.08-5.09-.27-9.83.15-15.34,3.36,6.47,5.85,12.96,8.63,19.86.55,1.35,2.84,3.25,3.88,1.59,1.73-2.77,2.79-5.87,3.9-8.69,1.11-.47,1.11-1.72,1.43-2.71.86-2.62,1.94-5.25,3.42-7.94.51,5.22.38,11.03.13,16.04-.93.55-2.27.69-2.34,1.56-.12,1.35.49,2.24,2.07,2.24h9.95c.77,0,1.24-.59,1.35-1.05.54-2.35-3.99-1.65-4-5.56l-.05-20.59c0-3.94,3.45-1.93,3.49-4.96,0-.74-.36-1.44-1.44-1.69-2.9.09-5.57-.21-8.52.2l-9.64,22.21-9.71-21.94c-1.23-1.2-4.22-.05-5.81-.23-2.04-.5-3.95-.35-4.74,1.64l3.58,3.62.12,21.81c0,.87-.31,1.71-1.07,1.94-.61.19-.97-.5-1.42-1.31-12.03-21.72-19.78-45.09-21.64-70.07-.71-9.51-.86-18.76.05-28.18,2.74-28.17,12.58-54.11,28.1-77.89C177.22,43.14,227.15,14.88,279.6,12.19c30.57-1.57,60.03,5.94,86.9,20.42,9.24,4.98,17.07,10.93,25.41,16.59ZM293.71,65.18c.01.81.79-12.85-1.27-9.81-.15.23-.48.74-.48,1.2l.18,20.56c0,.47.58,1.15.85,1.11,1.7-.29.77-10.38.72-13.05h0ZM284.62,78c.22.85.31,1.18,1.04,1.19.47,0,1.23-.45.97-1.37l-4.76-17.26c-.22-.8-.93-1.13-1.2-.86-.45.45-.66.68-.47,1.39l4.42,16.91ZM301.59,77.01l4.22-17.2c.15-.63-.97-.59-1.16-.26-.15.25-.53.48-.66.98l-4.25,16.38c-.19.72.27,1.34.66,1.43.5.12.98-.46,1.2-1.33h-.01ZM314.35,69.31c1.14-2.2,4.12-3.96,2.27-6.61-.81.89-13.11,19.88-9.23,18.53,2.72-3.78,4.72-7.6,6.96-11.92h0ZM268.87,63.54c-1.35,1.37,9.88,18.21,10.07,18.31,4.05,2.22-8.48-17.62-10.07-18.31ZM260.82,71.78c-9.19-5.89,13.16,15.91,12.35,13.81,1.67-1.96-12.17-13.69-12.35-13.81ZM326.41,72.28c.6-.6-.41-1.38-1.14-1.16-1.93,2.21-12.54,11.69-11.83,13.03.25.47.63.31.89.36,1.12.22,9.94-10.06,12.07-12.23h0ZM333.7,80.62c-1.48-.81-16.17,8.41-14.19,9.16-.19,2.82,15.58-9.47,14.19-9.16ZM266.98,90.06c-4.34-3.93-8.87-6.35-13.66-8.87-12.58-6.62,9.83,8.7,5.09,5.06,2.45,1.89,4.99,4.81,8.57,3.81ZM316,90.58l-3.22-2.84c-1.75-1.55-3.14-3.06-5.5-2.58-10.14-4.68-22.16-4.21-31.54,2.28-6.01,4.16-11.66,7.98-16.66,13.96,18.85,19.92,44.55,21.66,65.22,2.75.87-.8,2.82-1.64,2.88-3.02-3.05-4.3-7.4-7.21-11.17-10.55h0ZM259.2,95.5c-.25-.02-.43-.39-.98-.51l-9.27-2.06c-.67-.15-1.32-.49-1.48.02-.07.24-.21,1.22.14,1.32,17.66,5.25,9.02,1.02,11.59,1.23ZM331.35,93.83c-1.15.02-4.05.15-3.7,1.83.7,1.72,4.32.9,5.05-.48,2-.12,4.19-.47,6.19-2.11-2.52-1.68-5.48.73-7.54.76h0ZM340.68,105.68c7.09-1.19-16.1-2.45-11.24.08,3.77.19,7.37.18,11.24-.08ZM257.55,106.03c1.36-2.25-13.02-.88-12.32-.33-1.56,2.12,12.53.64,12.32.33ZM336.88,117.9c.86.29,1.24-1.03,1-1.06-.23-.03-.28-.71-.75-.85l-15.88-4.7c-.88-.26-1.29.26-1.3.94,0,.6.32.78,1.19,1.02,5.28,1.43,10.24,2.81,15.74,4.66h0ZM249.62,118.34l16.78-4.85c.41-.12.22-1.56-.17-1.46-.34.08-1.1-.32-1.58-.17l-15.14,4.83c-.43.14-.61.69-.75.86s.04,1.03.87.79h0ZM218.72,121.17c-.91.33-2.08.22-2.96,1.28,1.29,2.03,3.18,2.4,4.98,2.72.67.59,1.38,1.29,1.94,1.96.25,1.7,1.22,3.24,2.58,4.83,1.14-.91.46-1.88.69-2.65.88-2.95,3.42-4.69,6.43-5.83.92-.35-.15-2.05-.99-2.25-5.86-1.38-4.48-6.75-6.37-6.69-2.01.06-.72,4.56-6.31,6.62h.01ZM331,128.4c.71.46,1.39-.09,1.44-.33.31-1.5-16.43-11.36-19.6-12.19-.27,1.53,1.1,2.33,2.2,2.95,5.38,3.06,10.48,6.03,15.95,9.57h0ZM256.38,128.45l16.1-10.07c.39-.24.58-.73.72-.91s-.02-.76-.29-.8c-1.87-.3-16.5,9.67-19.69,11.65.81,1.38,2.05.82,3.15.13h.01ZM269.15,131.34l10.56-10.99c.32-.34.26-1.51-.07-1.5-.29.02-1.1.21-1.43.55l-16.14,16.47c-.67.68-1.39,1.6-.54,2.39,2.97-1.63,5.06-4.24,7.63-6.92h-.01ZM325.3,135.45l-13-12.65c-1.69-1.65-3.05-3.51-5.58-4.18.73,2.47,2.43,4.01,4.18,5.65l14.42,13.54c.67.03.77-1.61-.01-2.37h-.01ZM284.75,120.79c-1.32-.54-1.9.55-2.37,1.42-4.28,7.85-8.61,15.34-12.71,23.91,3.3.59,13.23-22.21,15.08-25.33ZM304.59,125.88c3.37,6.02,7.14,13.7,11.38,18.83.35.42.44-.03.79-.28.43-.31.14-.81-.17-1.33l-10.53-17.96c-.54-1.79-2.11-2.98-3.3-4.91-2.15-1.71,1.9,8.05,1.84,5.64h-.01ZM306.11,147.45l-7.16-25.14c-.12-.42-.8-.52-.91-.69-.15-.23-.5-.15-.55.06-.08.33-.15.89-.05,1.29l6.99,25.55c.13.47.76.69.91.86.27.32.55.09.57-.18.02-.37.43-.93.19-1.75h0ZM246.04,143.14c-1.38,1.51-2.53,3.37-2.72,5.38-.68.94-1.46,2.16-1.92,3.3-2.08,1.27-3.48,3.7-4.12,6.03-1.94,1.38-3.27,3.91-2.95,6.27.71,5.36,7.4,4.17,8.56,5.91,1.08,1.62-2.51,7.65-.32,9.28l3.58,2.67c-3.38,8.9,4.08,5.51,2.26,12.36-1.44,5.42,2.37,11.31,5.65,11,3.82-.36,8.01.51,11.72-.45,5.96-1.54,11.05.97,12.77,7.15,1.01,3.64,1.04,7.48,1.61,11.61,9.12.02,17.79-.04,26.76-.2l31.55-.57c-8.59-11.67-14.52-31.9-8-42.61l5.5-9.04c2.29.11,2.35-2.73,3.37-4.09,16.49-21.99,2.68-46.23.29-45.94-2.07.25-3.04,16.06-21.61,26.73-18.38,10.56-44.42,7.69-57.7-5.06l-10.43-10.02-3.85,10.29h0ZM285.18,139.51c1.51-6.12,3.27-11.58,3.99-17.49-.88-.24-1.79.91-1.96,1.78-1.78,8.82-4.81,17.12-5.75,26.41,3.46-2.67,2.79-6.93,3.72-10.7ZM292.84,121.98c-.25,9.87-.73,18.98.04,28.95,2.71,1.6,1.65-30.15-.04-28.95ZM368.61,156.5c.63,5.95-1.52,11.64-6.18,15.93-3.38,3.11-7.87,3.6-12.68,4.58,4.06,3.56,9.61,4.19,14.12,2.89,5.53-1.59,8.77-4.76,11.4-9.4s3.9-8.76,1.66-14.4c-2.03-5.12-5.44-9.57-11-11.46-1.76-.6-3.48-2.27-5.63-.79,4.25,3.64,7.15,7.4,8.3,12.65h.01ZM211.72,156.74c1.31-3.95,2.97-5.43,6.66-6.75-2.1-1.46-3.74-.72-4.92-1.86s-.88-2.76-1.89-4.49c-.99,3.75-2.59,5.38-6.48,6.37,3.82,1.16,5.04,2.68,6.63,6.72h0ZM218.02,178.49c-1.43.95-2.84,1.67-3.94,2.96,1.75.99,2.34,2.89,4.02,2.37.21.17.33.44.54.6-.04,1.74,1.29,3.17,2.44,4.5,1.14-1.46,1.07-2.68,1.61-3.83s1.24-2.32,2.52-2.61c.97-.22,2.04-.3,2.99-1.21-2.95-1.2-4.73-2.66-6.19-4.78-.45-.65-.26-1.51-1.44-2.36-1.02,1.7-1.9,2.95-2.56,4.36h0ZM432.55,227.1c-3.19,1.39,4.84.02,2.66,2.22-.81.82-4.56-.49-3.56,1.46.27.53,3.28,1.09,4.84-.58.49-.52.25-1.41.1-2.36-.18-1.13.59-2.48.14-3.33-.99-1.85-4.61-1.26-4.92-.64-.23.46-.07.95,0,1.72,1.31-.42,2.7-1.69,4,.33-1.19.96-2.41.42-3.26,1.18ZM442.58,224.96c-.97.11-1.83.72-1.98,1.72l-.11.69c-.1.67,4.14.41,2.71,1.93-.82.88-4.07-.58-3.59,1.18,1,1.63,5.16.95,5.24-1.27.04-1.14-1.04-2.06-.39-2.94.54-.74.41-1.68-.03-2.16-1-1.09-4.17-1.06-4.51-.22-.12.29-.26.66-.04,1.27,1.11-.38,2.2-1.06,2.7-.21h0ZM364.62,249.14c-2.01,1.07-2.28,3.59-2.88,5.75-1.82,6.51,1.55,12.33,7.44,14.85,2.5,1.07,4.98-1.74,6.98-1.67,4.32,3.11,9.9-1.03,9.77-.54.21-.77.76-1.83.38-2.41-1.69.6-2.53.21-3.04-.32-1.07-1.11-.14-2.4-.14-3.7l.1-28.58c-3.3,2.7-8.57.43-9.24,3.69-.27,1.33,1.38,1.7,2.95,1.52.79,2.15.21,4.34.29,6.63-4.7-1.58-9.92-.18-12.61,4.78h0ZM246.74,235.54c-1.8.54-2.42,2.35-1.89,3.72.39,1,1.79,1.96,3.15,1.6,1.22-.32,2.3-1.93,1.92-3.14-.31-.98-1.6-2.66-3.17-2.18h0ZM325.35,235.54c-1.82.54-2.36,2.32-1.84,3.73.37,1,1.77,1.93,3.1,1.59s2.31-1.79,1.91-3.17c-.28-.95-1.53-2.63-3.16-2.15h-.01ZM281.29,265.68c-1.2,1.11-3.37-.08-4.43,2.36,4.02.79,7.86.52,11.54.2.29-.05.26-1.45-.02-1.48-1.47-.09-2.91-.59-3.78-1.68-.02-1.16-.7-2.41-.61-3.91.4-6.37-.53-12.43.48-18.78l10.77,24.3c.38.86.54,1.5,1.63,1.07.44-.17.24-.89.5-1.23,2.79-3.58,7.29-18.31,10.7-23.31.67,3.79,1.46,20.95-.81,23.26-1.09.24-2.39.36-3.44,1.33,4.69.24,8.72.21,12.9-.14-1.54-1.26-3.91-1.3-3.92-3.25l-.18-22.64c-.02-2.78,1.66-3.63,4.43-4.64-2.66-1.5-5.11-.41-7.68-.73-1.75-.22-1.77,1.23-2.12,2.03l-9.78,22.21c-1.92-4.48-3.58-8.46-5.47-12.28s-2.49-7.8-4.91-11.69c-3.24-.18-6.67-.92-10.17.37,2.74,1.32,5.06,1.11,5.06,4.09l.03,20.68c0,1.54-.37,2.74-.71,3.87h-.01Z"/>
  <path class="st17" d="M425.44,262.13c-.49,1.98-5.5,2.46-6.74,1.07-3.39-3.77-3.51-9.06-1.13-13.16,1.13-1.94,2.63-2.35,4.74-2.27,4.8.19,3.85,11.53,3.14,14.35h-.01Z"/>
  <path class="st55" d="M411.96,68.56c-4.5-3.93-8.77-8.24-12.72-12.73,2.06.27,8,7.24,11.25,10.11,1.01.89.98,1.81,1.47,2.62Z"/>
  <path class="st85" d="M400.56,303.79c3.3-3.8,6.91-7.41,10.7-10.71-.56.72-.4,1.75-1.44,2.64-2.97,2.54-7.57,8.21-9.27,8.07h0Z"/>
  <path class="st66" d="M397.28,53.93c-2.34-.55-3.86-2.93-5.37-4.73,1.94,1.32,4.32,2.37,5.37,4.73Z"/>
  <path class="st88" d="M421.34,80.52c-.74-.45-1.16-1.23-1.5-2l1.5,2Z"/>
  <path class="st89" d="M165.33,259.82c.38-.96.31-2.25,1.43-2.71-.32.99-.32,2.24-1.43,2.71Z"/>
  <path class="st25" d="M339.34,167.15c-1.51.82-2.46,2.6-3.37,4.09l-5.5,9.04c-6.52,10.71-.58,30.94,8,42.61l-31.55.57c-8.97.16-17.64.21-26.76.2-.57-4.13-.6-7.98-1.61-11.61-1.72-6.19-6.81-8.69-12.77-7.15-3.71.96-7.9.08-11.72.45-3.28.31-7.09-5.58-5.65-11,1.82-6.84-5.64-3.45-2.26-12.36l-3.58-2.67c-2.19-1.63,1.4-7.66.32-9.28-1.16-1.73-7.85-.55-8.56-5.91-.32-2.37,1.01-4.9,2.95-6.27s3.24-3.86,4.12-6.03c.46-1.14,1.24-2.36,1.92-3.3,1.81-1.07,2.55-3.35,2.72-5.38l3.85-10.29,10.43,10.02c13.28,12.76,39.32,15.62,57.7,5.06,18.57-10.66,19.54-26.48,21.61-26.73,2.39-.29,16.19,23.95-.29,45.94h0Z"/>
  <path class="st14" d="M307.28,85.16c3.69,1.7,5.39,4.93,8.72,5.42,3.77,3.33,8.12,6.25,11.17,10.55-.06,1.38-2,2.22-2.88,3.02-20.67,18.92-46.36,17.18-65.22-2.75,5.01-5.98,10.65-9.8,16.66-13.96,9.37-6.48,21.4-6.96,31.54-2.28h0ZM286.66,85.82c-1.24-.4-2.25.5-3.34.7-1,.19-1.31,1.14-2.31,1.63-2.31,1.12-4.89,1.81-6.28,3.74-1.39-.14-2.31,1.65-3.32,2.13-2.03.97-3.82,2.03-5.18,3.93-.69.96-2.66.9-3.02,3.05,1.89-.25,2.86-1.76,4.12-2.69,1.51-1.11,3.42-1.77,4.63-3.3.21.04.47.1.68.12.34.02.44-.62.68-.69.79-.21,1.28-1.11,1.99-1.4,3.14-1.3,6.45-2.29,9.39-3.87,5.19-1.36,10.59-1.2,15.88-.58,1.92,1.25,7.3,2.55,10.61,4.52,1.03.62,2.44,1.22,3.43,1.92,2.77,1.95,5.53,3.94,8.6,5.41-2.82-3.11-5.35-6.04-8.64-7.32-.58-.23-.92-1.3-1.73-1.27-.3.01-.6-.16-.9-.18-2.02-1.78-4.54-3.25-7.23-3.66,1.13-1.72-4.25-2.16-6.08-2.87-2.13-.82-10.62-1.04-11.97.68h0ZM289.93,113.2c5.68,2.14,12.11-1.76,13.84-7.21,1.74-5.49-.69-11.8-6.55-14.03s-12.8,1.04-14.69,6.73c-2.01,6.04.87,12.04,7.41,14.51h-.01ZM279.29,94.61c-3.14,1.2-13.53,7.26-13.36,8.88.18,1.74,8.15,5.88,10.05,6.96.91.52,1.4,1.63,2.73,1.37,1.72-.34,2.68,1.79,4.77.94-1.83-1.96-2.46-3.87-3.44-5.56.25-5.05-1.45-9.21,2.67-13.38-1.53-1.48-2.45.42-3.42.79ZM321.03,103.02c-5.33-4.3-10.16-7.65-16.41-9.46,3.36,6.62,3.04,13.21-1.4,19.31,6.8-1.37,12.58-4.9,17.81-9.85Z"/>
</svg>
